<?xml version="1.0" encoding="us-ascii" standalone="no"?><svg xmlns="http://www.w3.org/2000/svg" xmlns:xlink="http://www.w3.org/1999/xlink" contentStyleType="text/css" height="763px" preserveAspectRatio="none" style="width:1187px;height:763px;background:#FFFFFF;" version="1.1" viewBox="0 0 1187 763" width="1187px" zoomAndPan="magnify"><defs/><g><rect fill="none" height="383.0547" style="stroke:#000000;stroke-width:1.5;" width="889" x="215.5" y="251.3672"/><rect fill="none" height="259.6484" style="stroke:#000000;stroke-width:1.5;" width="869" x="225.5" y="367.7734"/><line style="stroke:#181818;stroke-width:0.5;stroke-dasharray:5.0,5.0;" x1="38" x2="38" y1="82.6094" y2="681.7734"/><line style="stroke:#181818;stroke-width:0.5;stroke-dasharray:5.0,5.0;" x1="276.5" x2="276.5" y1="82.6094" y2="681.7734"/><line style="stroke:#181818;stroke-width:0.5;stroke-dasharray:5.0,5.0;" x1="555.5" x2="555.5" y1="82.6094" y2="681.7734"/><line style="stroke:#181818;stroke-width:0.5;stroke-dasharray:5.0,5.0;" x1="662.5" x2="662.5" y1="82.6094" y2="681.7734"/><line style="stroke:#181818;stroke-width:0.5;stroke-dasharray:5.0,5.0;" x1="921" x2="921" y1="82.6094" y2="681.7734"/><line style="stroke:#181818;stroke-width:0.5;stroke-dasharray:5.0,5.0;" x1="1059.5" x2="1059.5" y1="82.6094" y2="681.7734"/><line style="stroke:#181818;stroke-width:0.5;stroke-dasharray:5.0,5.0;" x1="1137.5" x2="1137.5" y1="82.6094" y2="681.7734"/><text fill="#000000" font-family="sans-serif" font-size="14" lengthAdjust="spacing" textLength="61" x="5" y="79.5332">Operador</text><ellipse cx="38.5" cy="13.5" fill="#E2E2F0" rx="8" ry="8" style="stroke:#181818;stroke-width:0.5;"/><path d="M38.5,21.5 L38.5,48.5 M25.5,29.5 L51.5,29.5 M38.5,48.5 L25.5,63.5 M38.5,48.5 L51.5,63.5 " fill="none" style="stroke:#181818;stroke-width:0.5;"/><text fill="#000000" font-family="sans-serif" font-size="14" lengthAdjust="spacing" textLength="61" x="5" y="695.3066">Operador</text><ellipse cx="38.5" cy="706.8828" fill="#E2E2F0" rx="8" ry="8" style="stroke:#181818;stroke-width:0.5;"/><path d="M38.5,714.8828 L38.5,741.8828 M25.5,722.8828 L51.5,722.8828 M38.5,741.8828 L25.5,756.8828 M38.5,741.8828 L51.5,756.8828 " fill="none" style="stroke:#181818;stroke-width:0.5;"/><rect fill="#E2E2F0" height="31.6094" rx="2.5" ry="2.5" style="stroke:#181818;stroke-width:0.5;" width="82" x="235.5" y="50"/><text fill="#000000" font-family="sans-serif" font-size="14" lengthAdjust="spacing" textLength="68" x="242.5" y="71.5332">Console/UI</text><rect fill="#E2E2F0" height="31.6094" rx="2.5" ry="2.5" style="stroke:#181818;stroke-width:0.5;" width="82" x="235.5" y="680.7734"/><text fill="#000000" font-family="sans-serif" font-size="14" lengthAdjust="spacing" textLength="68" x="242.5" y="702.3066">Console/UI</text><rect fill="#E2E2F0" height="31.6094" rx="2.5" ry="2.5" style="stroke:#181818;stroke-width:0.5;" width="84" x="513.5" y="50"/><text fill="#000000" font-family="sans-serif" font-size="14" lengthAdjust="spacing" textLength="70" x="520.5" y="71.5332">FileService</text><rect fill="#E2E2F0" height="31.6094" rx="2.5" ry="2.5" style="stroke:#181818;stroke-width:0.5;" width="84" x="513.5" y="680.7734"/><text fill="#000000" font-family="sans-serif" font-size="14" lengthAdjust="spacing" textLength="70" x="520.5" y="702.3066">FileService</text><rect fill="#E2E2F0" height="31.6094" rx="2.5" ry="2.5" style="stroke:#181818;stroke-width:0.5;" width="111" x="607.5" y="50"/><text fill="#000000" font-family="sans-serif" font-size="14" lengthAdjust="spacing" textLength="97" x="614.5" y="71.5332">UserRepository</text><rect fill="#E2E2F0" height="31.6094" rx="2.5" ry="2.5" style="stroke:#181818;stroke-width:0.5;" width="111" x="607.5" y="680.7734"/><text fill="#000000" font-family="sans-serif" font-size="14" lengthAdjust="spacing" textLength="97" x="614.5" y="702.3066">UserRepository</text><rect fill="#E2E2F0" height="31.6094" rx="2.5" ry="2.5" style="stroke:#181818;stroke-width:0.5;" width="166" x="838" y="50"/><text fill="#000000" font-family="sans-serif" font-size="14" lengthAdjust="spacing" textLength="152" x="845" y="71.5332">FyoraContext (EF Core)</text><rect fill="#E2E2F0" height="31.6094" rx="2.5" ry="2.5" style="stroke:#181818;stroke-width:0.5;" width="166" x="838" y="680.7734"/><text fill="#000000" font-family="sans-serif" font-size="14" lengthAdjust="spacing" textLength="152" x="845" y="702.3066">FyoraContext (EF Core)</text><text fill="#000000" font-family="sans-serif" font-size="14" lengthAdjust="spacing" textLength="43" x="1035.5" y="79.5332">SQLite</text><path d="M1042,29 C1042,19 1060,19 1060,19 C1060,19 1078,19 1078,29 L1078,55 C1078,65 1060,65 1060,65 C1060,65 1042,65 1042,55 L1042,29 " fill="#E2E2F0" style="stroke:#181818;stroke-width:1.5;"/><path d="M1042,29 C1042,39 1060,39 1060,39 C1060,39 1078,39 1078,29 " fill="none" style="stroke:#181818;stroke-width:1.5;"/><text fill="#000000" font-family="sans-serif" font-size="14" lengthAdjust="spacing" textLength="43" x="1035.5" y="695.3066">SQLite</text><path d="M1042,708.3828 C1042,698.3828 1060,698.3828 1060,698.3828 C1060,698.3828 1078,698.3828 1078,708.3828 L1078,734.3828 C1078,744.3828 1060,744.3828 1060,744.3828 C1060,744.3828 1042,744.3828 1042,734.3828 L1042,708.3828 " fill="#E2E2F0" style="stroke:#181818;stroke-width:1.5;"/><path d="M1042,708.3828 C1042,718.3828 1060,718.3828 1060,718.3828 C1060,718.3828 1078,718.3828 1078,708.3828 " fill="none" style="stroke:#181818;stroke-width:1.5;"/><rect fill="#E2E2F0" height="31.6094" rx="2.5" ry="2.5" style="stroke:#181818;stroke-width:0.5;" width="87" x="1094.5" y="50"/><text fill="#000000" font-family="sans-serif" font-size="14" lengthAdjust="spacing" textLength="73" x="1101.5" y="71.5332">File System</text><rect fill="#E2E2F0" height="31.6094" rx="2.5" ry="2.5" style="stroke:#181818;stroke-width:0.5;" width="87" x="1094.5" y="680.7734"/><text fill="#000000" font-family="sans-serif" font-size="14" lengthAdjust="spacing" textLength="73" x="1101.5" y="702.3066">File System</text><polygon fill="#181818" points="264.5,110.9609,274.5,114.9609,264.5,118.9609,268.5,114.9609" style="stroke:#181818;stroke-width:1.0;"/><line style="stroke:#181818;stroke-width:1.0;" x1="38.5" x2="270.5" y1="114.9609" y2="114.9609"/><text fill="#000000" font-family="sans-serif" font-size="13" font-weight="bold" lengthAdjust="spacing" textLength="7" x="45.5" y="110.1045">1</text><text fill="#000000" font-family="sans-serif" font-size="13" lengthAdjust="spacing" textLength="203" x="56.5" y="110.1045">Seleciona "Importar dados (JSON)"</text><polygon fill="#181818" points="543.5,141.3125,553.5,145.3125,543.5,149.3125,547.5,145.3125" style="stroke:#181818;stroke-width:1.0;"/><line style="stroke:#181818;stroke-width:1.0;" x1="276.5" x2="549.5" y1="145.3125" y2="145.3125"/><text fill="#000000" font-family="sans-serif" font-size="13" font-weight="bold" lengthAdjust="spacing" textLength="7" x="283.5" y="140.4561">2</text><text fill="#000000" font-family="sans-serif" font-size="13" lengthAdjust="spacing" textLength="244" x="294.5" y="140.4561">ImportUsersFromJson("fyora_import.json")</text><polygon fill="#181818" points="1126,171.6641,1136,175.6641,1126,179.6641,1130,175.6641" style="stroke:#181818;stroke-width:1.0;"/><line style="stroke:#181818;stroke-width:1.0;" x1="555.5" x2="1132" y1="175.6641" y2="175.6641"/><text fill="#000000" font-family="sans-serif" font-size="13" font-weight="bold" lengthAdjust="spacing" textLength="7" x="562.5" y="170.8076">3</text><text fill="#000000" font-family="sans-serif" font-size="13" lengthAdjust="spacing" textLength="288" x="573.5" y="170.8076">Ler /raiz/fyora_import.json (resolve raiz do projeto)</text><polygon fill="#181818" points="566.5,202.0156,556.5,206.0156,566.5,210.0156,562.5,206.0156" style="stroke:#181818;stroke-width:1.0;"/><line style="stroke:#181818;stroke-width:1.0;stroke-dasharray:2.0,2.0;" x1="560.5" x2="1137" y1="206.0156" y2="206.0156"/><text fill="#000000" font-family="sans-serif" font-size="13" font-weight="bold" lengthAdjust="spacing" textLength="7" x="572.5" y="201.1592">4</text><text fill="#000000" font-family="sans-serif" font-size="13" lengthAdjust="spacing" textLength="93" x="583.5" y="201.1592">Conte&#250;do JSON</text><polygon fill="#181818" points="287.5,232.3672,277.5,236.3672,287.5,240.3672,283.5,236.3672" style="stroke:#181818;stroke-width:1.0;"/><line style="stroke:#181818;stroke-width:1.0;stroke-dasharray:2.0,2.0;" x1="281.5" x2="554.5" y1="236.3672" y2="236.3672"/><text fill="#000000" font-family="sans-serif" font-size="13" font-weight="bold" lengthAdjust="spacing" textLength="7" x="293.5" y="231.5107">5</text><text fill="#000000" font-family="sans-serif" font-size="13" lengthAdjust="spacing" textLength="71" x="304.5" y="231.5107">Lista&lt;User&gt;</text><path d="M215.5,251.3672 L288.5,251.3672 L288.5,259.7188 L278.5,269.7188 L215.5,269.7188 L215.5,251.3672 " fill="#EEEEEE" style="stroke:#000000;stroke-width:1.5;"/><rect fill="none" height="383.0547" style="stroke:#000000;stroke-width:1.5;" width="889" x="215.5" y="251.3672"/><text fill="#000000" font-family="sans-serif" font-size="13" font-weight="bold" lengthAdjust="spacing" textLength="28" x="230.5" y="265.8623">loop</text><text fill="#000000" font-family="sans-serif" font-size="11" font-weight="bold" lengthAdjust="spacing" textLength="194" x="303.5" y="264.7861">[para cada usu&#225;rio em Lista&lt;User&gt;]</text><polygon fill="#181818" points="651,288.0703,661,292.0703,651,296.0703,655,292.0703" style="stroke:#181818;stroke-width:1.0;"/><line style="stroke:#181818;stroke-width:1.0;" x1="276.5" x2="657" y1="292.0703" y2="292.0703"/><text fill="#000000" font-family="sans-serif" font-size="13" font-weight="bold" lengthAdjust="spacing" textLength="7" x="283.5" y="287.2139">6</text><text fill="#000000" font-family="sans-serif" font-size="13" lengthAdjust="spacing" textLength="83" x="294.5" y="287.2139">AddUser(user)</text><polygon fill="#181818" points="909,318.4219,919,322.4219,909,326.4219,913,322.4219" style="stroke:#181818;stroke-width:1.0;"/><line style="stroke:#181818;stroke-width:1.0;" x1="663" x2="915" y1="322.4219" y2="322.4219"/><text fill="#000000" font-family="sans-serif" font-size="13" font-weight="bold" lengthAdjust="spacing" textLength="7" x="670" y="317.5654">7</text><text fill="#000000" font-family="sans-serif" font-size="13" lengthAdjust="spacing" textLength="223" x="681" y="317.5654">Verificar duplicidade (Nickname/Email)</text><polygon fill="#181818" points="674,348.7734,664,352.7734,674,356.7734,670,352.7734" style="stroke:#181818;stroke-width:1.0;"/><line style="stroke:#181818;stroke-width:1.0;stroke-dasharray:2.0,2.0;" x1="668" x2="920" y1="352.7734" y2="352.7734"/><text fill="#000000" font-family="sans-serif" font-size="13" font-weight="bold" lengthAdjust="spacing" textLength="7" x="680" y="347.917">8</text><text fill="#000000" font-family="sans-serif" font-size="13" lengthAdjust="spacing" textLength="111" x="691" y="347.917">Existe / N&#227;o existe</text><path d="M225.5,367.7734 L286.5,367.7734 L286.5,376.125 L276.5,386.125 L225.5,386.125 L225.5,367.7734 " fill="#EEEEEE" style="stroke:#000000;stroke-width:1.5;"/><rect fill="none" height="259.6484" style="stroke:#000000;stroke-width:1.5;" width="869" x="225.5" y="367.7734"/><text fill="#000000" font-family="sans-serif" font-size="13" font-weight="bold" lengthAdjust="spacing" textLength="16" x="240.5" y="382.2686">alt</text><text fill="#000000" font-family="sans-serif" font-size="11" font-weight="bold" lengthAdjust="spacing" textLength="61" x="301.5" y="381.1924">[duplicado]</text><polygon fill="#181818" points="287.5,404.4766,277.5,408.4766,287.5,412.4766,283.5,408.4766" style="stroke:#181818;stroke-width:1.0;"/><line style="stroke:#181818;stroke-width:1.0;stroke-dasharray:2.0,2.0;" x1="281.5" x2="662" y1="408.4766" y2="408.4766"/><text fill="#000000" font-family="sans-serif" font-size="13" font-weight="bold" lengthAdjust="spacing" textLength="7" x="293.5" y="403.6201">9</text><text fill="#000000" font-family="sans-serif" font-size="13" lengthAdjust="spacing" textLength="226" x="304.5" y="403.6201">InvalidOperationException (duplicidade)</text><line style="stroke:#000000;stroke-width:1.0;stroke-dasharray:2.0,2.0;" x1="225.5" x2="1094.5" y1="417.4766" y2="417.4766"/><text fill="#000000" font-family="sans-serif" font-size="11" font-weight="bold" lengthAdjust="spacing" textLength="35" x="230.5" y="428.8955">[novo]</text><line style="stroke:#181818;stroke-width:1.0;" x1="663" x2="705" y1="454.6641" y2="454.6641"/><line style="stroke:#181818;stroke-width:1.0;" x1="705" x2="705" y1="454.6641" y2="467.6641"/><line style="stroke:#181818;stroke-width:1.0;" x1="664" x2="705" y1="467.6641" y2="467.6641"/><polygon fill="#181818" points="674,463.6641,664,467.6641,674,471.6641,670,467.6641" style="stroke:#181818;stroke-width:1.0;"/><text fill="#000000" font-family="sans-serif" font-size="13" font-weight="bold" lengthAdjust="spacing" textLength="14" x="670" y="449.8076">10</text><text fill="#000000" font-family="sans-serif" font-size="13" lengthAdjust="spacing" textLength="180" x="688" y="449.8076">Normalizar CreatedAt (fallback)</text><polygon fill="#181818" points="909,494.0156,919,498.0156,909,502.0156,913,498.0156" style="stroke:#181818;stroke-width:1.0;"/><line style="stroke:#181818;stroke-width:1.0;" x1="663" x2="915" y1="498.0156" y2="498.0156"/><text fill="#000000" font-family="sans-serif" font-size="13" font-weight="bold" lengthAdjust="spacing" textLength="14" x="670" y="493.1592">11</text><text fill="#000000" font-family="sans-serif" font-size="13" lengthAdjust="spacing" textLength="127" x="688" y="493.1592">Add &amp; SaveChanges()</text><polygon fill="#181818" points="1048,524.3672,1058,528.3672,1048,532.3672,1052,528.3672" style="stroke:#181818;stroke-width:1.0;"/><line style="stroke:#181818;stroke-width:1.0;" x1="921" x2="1054" y1="528.3672" y2="528.3672"/><text fill="#000000" font-family="sans-serif" font-size="13" font-weight="bold" lengthAdjust="spacing" textLength="14" x="928" y="523.5107">12</text><text fill="#000000" font-family="sans-serif" font-size="13" lengthAdjust="spacing" textLength="97" x="946" y="523.5107">INSERT Users &#8230;</text><polygon fill="#181818" points="932,554.7188,922,558.7188,932,562.7188,928,558.7188" style="stroke:#181818;stroke-width:1.0;"/><line style="stroke:#181818;stroke-width:1.0;stroke-dasharray:2.0,2.0;" x1="926" x2="1059" y1="558.7188" y2="558.7188"/><text fill="#000000" font-family="sans-serif" font-size="13" font-weight="bold" lengthAdjust="spacing" textLength="14" x="938" y="553.8623">13</text><text fill="#000000" font-family="sans-serif" font-size="13" lengthAdjust="spacing" textLength="19" x="956" y="553.8623">OK</text><polygon fill="#181818" points="674,585.0703,664,589.0703,674,593.0703,670,589.0703" style="stroke:#181818;stroke-width:1.0;"/><line style="stroke:#181818;stroke-width:1.0;stroke-dasharray:2.0,2.0;" x1="668" x2="920" y1="589.0703" y2="589.0703"/><text fill="#000000" font-family="sans-serif" font-size="13" font-weight="bold" lengthAdjust="spacing" textLength="14" x="680" y="584.2139">14</text><text fill="#000000" font-family="sans-serif" font-size="13" lengthAdjust="spacing" textLength="19" x="698" y="584.2139">OK</text><polygon fill="#181818" points="287.5,615.4219,277.5,619.4219,287.5,623.4219,283.5,619.4219" style="stroke:#181818;stroke-width:1.0;"/><line style="stroke:#181818;stroke-width:1.0;stroke-dasharray:2.0,2.0;" x1="281.5" x2="662" y1="619.4219" y2="619.4219"/><text fill="#000000" font-family="sans-serif" font-size="13" font-weight="bold" lengthAdjust="spacing" textLength="14" x="293.5" y="614.5654">15</text><text fill="#000000" font-family="sans-serif" font-size="13" lengthAdjust="spacing" textLength="19" x="311.5" y="614.5654">OK</text><polygon fill="#181818" points="49.5,659.7734,39.5,663.7734,49.5,667.7734,45.5,663.7734" style="stroke:#181818;stroke-width:1.0;"/><line style="stroke:#181818;stroke-width:1.0;stroke-dasharray:2.0,2.0;" x1="43.5" x2="275.5" y1="663.7734" y2="663.7734"/><text fill="#000000" font-family="sans-serif" font-size="13" font-weight="bold" lengthAdjust="spacing" textLength="14" x="55.5" y="658.917">16</text><text fill="#000000" font-family="sans-serif" font-size="13" lengthAdjust="spacing" textLength="131" x="73.5" y="658.917">N lidos / M importados</text><!--SRC=[RL9BRjim4Dtp50Cj2cdXQbyK1bBN1fowDXer1R8gnkAuPKA90aa9TbQzIb6WX-ZMDyb9EgJyKvA51PFpvds6WwqtTLkjoGeilR6mQiYYD5OqQBqgLOErXsHYQcSqvRVp1D31uJZ4p9IcWcodIegWMJ6itpgoDzGOfrXd5o7X-8naPomolQUjXtGwOobBMI_gjqAYnpKwWgJuib2-5_huuQKHA7REKtKmSbS8SGm6e_7HFxo3WZILojG8oRngZFLeGJBCGNfTh9PP8evORfiLtD73GXWtiwQwTgPEaqsm_Lt5qjjxlaeomUZOSnUw5cGXjwWUynTGI2snGaSGwY0DDDRSapU1Wfj7H-Kublq_1WHhaN-GPQ6Sn_V1sLW8RKm3F1Q44YL2wzhzRwiCK3N00Lpa2y_1F5TIXcBQyYTZHBmEIdxBrMzarKQLOKvjetdeF2w2TAdAXnehogSLAXtQ0dnqPfrkMPOWX-N-3zk89y4mrFx0n6Fdyr5l46rUTwYLZ6_e-RccsvAQy0VI2nT1bJHlHsswIwgJXwMn5VCyilc99VGahtZBDgZr6ik7RD3If-LPm1ieiAF9Jwn_a4jxL0mtvjKBvfR5zEOhn9M0frz_8u0henFBwjEvwUpcSFjAt5YXMehmEsyWOqvRp6609yABciDdwDSfxEr_]--></g></svg>