<?xml version="1.0" encoding="us-ascii" standalone="no"?><svg xmlns="http://www.w3.org/2000/svg" xmlns:xlink="http://www.w3.org/1999/xlink" contentStyleType="text/css" height="790px" preserveAspectRatio="none" style="width:1110px;height:790px;background:#FFFFFF;" version="1.1" viewBox="0 0 1110 790" width="1110px" zoomAndPan="magnify"><defs/><g><text fill="#000000" font-family="sans-serif" font-size="14" font-weight="bold" lengthAdjust="spacing" textLength="343" x="376.5" y="24.5332">UML Deployment - Execu&#231;&#227;o local (Fyora-sprint3)</text><!--cluster Local--><g id="cluster_Local"><polygon fill="none" points="16,196.1094,26,186.1094,891,186.1094,891,651.1094,881,661.1094,16,661.1094,16,196.1094" style="stroke:#181818;stroke-width:1.0;"/><line style="stroke:#181818;stroke-width:1.0;" x1="881" x2="891" y1="196.1094" y2="186.1094"/><line style="stroke:#181818;stroke-width:1.0;" x1="16" x2="881" y1="196.1094" y2="196.1094"/><line style="stroke:#181818;stroke-width:1.0;" x1="881" x2="881" y1="196.1094" y2="661.1094"/><text fill="#000000" font-family="sans-serif" font-size="14" font-weight="bold" lengthAdjust="spacing" textLength="101" x="399" y="213.6426">M&#225;quina Local</text><text fill="#000000" font-family="sans-serif" font-size="14" font-weight="bold" lengthAdjust="spacing" textLength="183" x="358" y="231.252">(Windows / macOS / Linux)</text></g><!--cluster Root--><g id="cluster_Root"><path d="M181,505.1094 L283,505.1094 A7.5,7.5 0 0 1 288,510.1094 L295,528.7188 L847,528.7188 A5,5 0 0 1 852,533.7188 L852,624.1094 A5,5 0 0 1 847,629.1094 L181,629.1094 A5,5 0 0 1 176,624.1094 L176,510.1094 A5,5 0 0 1 181,505.1094 " fill="none" style="stroke:#000000;stroke-width:1.5;"/><line style="stroke:#000000;stroke-width:1.5;" x1="176" x2="295" y1="528.7188" y2="528.7188"/><text fill="#000000" font-family="sans-serif" font-size="14" font-weight="bold" lengthAdjust="spacing" textLength="106" x="180" y="521.6426">Raiz do projeto</text></g><!--entity DotNet--><g id="elem_DotNet"><polygon fill="#F1F1F1" points="32.5,391.6094,42.5,381.6094,171.5,381.6094,171.5,419.2188,161.5,429.2188,32.5,429.2188,32.5,391.6094" style="stroke:#181818;stroke-width:0.5;"/><line style="stroke:#181818;stroke-width:0.5;" x1="161.5" x2="171.5" y1="391.6094" y2="381.6094"/><line style="stroke:#181818;stroke-width:0.5;" x1="32.5" x2="161.5" y1="391.6094" y2="391.6094"/><line style="stroke:#181818;stroke-width:0.5;" x1="161.5" x2="161.5" y1="391.6094" y2="429.2188"/><text fill="#000000" font-family="sans-serif" font-size="14" lengthAdjust="spacing" textLength="99" x="47.5" y="416.1426">.NET 8 Runtime</text></g><!--entity App--><g id="elem_App"><rect fill="#F1F1F1" height="55.2188" rx="5" ry="5" style="stroke:#181818;stroke-width:0.5;" width="156" x="329" y="245.1094"/><text fill="#000000" font-family="sans-serif" font-size="14" lengthAdjust="spacing" textLength="136" x="339" y="269.6426">Fyora Admin Console</text><text fill="#000000" font-family="sans-serif" font-size="14" lengthAdjust="spacing" textLength="110" x="339" y="287.252">(Program.cs + Ui)</text></g><!--entity EF--><g id="elem_EF"><rect fill="#F1F1F1" height="55.2188" rx="5" ry="5" style="stroke:#181818;stroke-width:0.5;" width="130" x="207" y="378.1094"/><text fill="#000000" font-family="sans-serif" font-size="14" lengthAdjust="spacing" textLength="53" x="217" y="402.6426">EF Core</text><text fill="#000000" font-family="sans-serif" font-size="14" lengthAdjust="spacing" textLength="110" x="217" y="420.252">(SQLite Provider)</text></g><!--entity DB--><g id="elem_DB"><rect fill="#F1F1F1" height="40.6094" rx="5" ry="5" style="stroke:#181818;stroke-width:0.5;" width="128" x="219" y="556.6094"/><polygon fill="#F1F1F1" points="330,561.6094,330,575.6094,342,575.6094,342,567.6094,336,561.6094,330,561.6094" style="stroke:#181818;stroke-width:0.5;"/><line style="stroke:#181818;stroke-width:0.5;" x1="336" x2="336" y1="561.6094" y2="567.6094"/><line style="stroke:#181818;stroke-width:0.5;" x1="342" x2="336" y1="567.6094" y2="567.6094"/><text fill="#000000" font-family="sans-serif" font-size="14" lengthAdjust="spacing" textLength="98" x="229" y="584.1426">fyora_admin.db</text></g><!--entity EXP--><g id="elem_EXP"><path d="M387.5,549.1094 L423.5,549.1094 A7.5,7.5 0 0 1 428.5,554.1094 L435.5,570.1094 L486.5,570.1094 A5,5 0 0 1 491.5,575.1094 L491.5,599.7188 A5,5 0 0 1 486.5,604.7188 L387.5,604.7188 A5,5 0 0 1 382.5,599.7188 L382.5,554.1094 A5,5 0 0 1 387.5,549.1094 " fill="#F1F1F1" style="stroke:#181818;stroke-width:0.5;"/><line style="stroke:#181818;stroke-width:0.5;" x1="382.5" x2="435.5" y1="570.1094" y2="570.1094"/><text fill="#000000" font-family="sans-serif" font-size="14" lengthAdjust="spacing" textLength="79" x="392.5" y="591.6426">fyora_export</text></g><!--entity SUM--><g id="elem_SUM"><path d="M531.5,549.1094 L567.5,549.1094 A7.5,7.5 0 0 1 572.5,554.1094 L579.5,570.1094 L648.5,570.1094 A5,5 0 0 1 653.5,575.1094 L653.5,599.7188 A5,5 0 0 1 648.5,604.7188 L531.5,604.7188 A5,5 0 0 1 526.5,599.7188 L526.5,554.1094 A5,5 0 0 1 531.5,549.1094 " fill="#F1F1F1" style="stroke:#181818;stroke-width:0.5;"/><line style="stroke:#181818;stroke-width:0.5;" x1="526.5" x2="579.5" y1="570.1094" y2="570.1094"/><text fill="#000000" font-family="sans-serif" font-size="14" lengthAdjust="spacing" textLength="97" x="536.5" y="591.6426">fyora_summary</text></g><!--entity IMP--><g id="elem_IMP"><rect fill="#F1F1F1" height="40.6094" rx="5" ry="5" style="stroke:#181818;stroke-width:0.5;" width="139" x="688.5" y="556.6094"/><polygon fill="#F1F1F1" points="810.5,561.6094,810.5,575.6094,822.5,575.6094,822.5,567.6094,816.5,561.6094,810.5,561.6094" style="stroke:#181818;stroke-width:0.5;"/><line style="stroke:#181818;stroke-width:0.5;" x1="816.5" x2="816.5" y1="561.6094" y2="567.6094"/><line style="stroke:#181818;stroke-width:0.5;" x1="822.5" x2="816.5" y1="567.6094" y2="567.6094"/><text fill="#000000" font-family="sans-serif" font-size="14" lengthAdjust="spacing" textLength="109" x="698.5" y="584.1426">fyora_import.json</text></g><!--entity User--><g id="elem_User"><ellipse cx="407" cy="52.6094" fill="#F1F1F1" rx="8" ry="8" style="stroke:#181818;stroke-width:0.5;"/><path d="M407,60.6094 L407,87.6094 M394,68.6094 L420,68.6094 M407,87.6094 L394,102.6094 M407,87.6094 L420,102.6094 " fill="none" style="stroke:#181818;stroke-width:0.5;"/><text fill="#000000" font-family="sans-serif" font-size="14" lengthAdjust="spacing" textLength="61" x="376.5" y="118.6426">Operador</text></g><g id="elem_GMN19"><path d="M907,552.6094 L907,601.6641 A5,5 0 0 0 912,606.6641 L1098,606.6641 A5,5 0 0 0 1103,601.6641 L1103,557.6094 L1093,547.6094 L912,547.6094 A5,5 0 0 0 907,552.6094 " fill="#FEFFDD" style="stroke:#181818;stroke-width:0.5;"/><path d="M1093,547.6094 L1093,555.1094 A2.5,2.5 0 0 0 1095.5,557.6094 L1103,557.6094 L1093,547.6094 " fill="#FEFFDD" style="stroke:#181818;stroke-width:1.0;"/><text fill="#000000" font-family="sans-serif" font-size="13" lengthAdjust="spacing" textLength="60" x="913" y="566.1045">SQLite file</text><text fill="#000000" font-family="sans-serif" font-size="13" lengthAdjust="spacing" textLength="175" x="913" y="582.4561">Tabelas: Users, ProgressLogs</text><text fill="#000000" font-family="sans-serif" font-size="13" lengthAdjust="spacing" textLength="156" x="913" y="598.8076">UNIQUE(Nickname, Email)</text></g><g id="elem_GMN22"><path d="M90.5,713.1094 L90.5,778.5156 A5,5 0 0 0 95.5,783.5156 L272.5,783.5156 A5,5 0 0 0 277.5,778.5156 L277.5,718.1094 L267.5,708.1094 L95.5,708.1094 A5,5 0 0 0 90.5,713.1094 " fill="#FEFFDD" style="stroke:#181818;stroke-width:0.5;"/><path d="M267.5,708.1094 L267.5,715.6094 A2.5,2.5 0 0 0 270,718.1094 L277.5,718.1094 L267.5,708.1094 " fill="#FEFFDD" style="stroke:#181818;stroke-width:1.0;"/><text fill="#000000" font-family="sans-serif" font-size="13" lengthAdjust="spacing" textLength="166" x="96.5" y="726.6045">Caminhos na raiz do projeto:</text><text fill="#000000" font-family="sans-serif" font-size="13" lengthAdjust="spacing" textLength="107" x="96.5" y="742.9561">- fyora_import.json</text><text fill="#000000" font-family="sans-serif" font-size="13" lengthAdjust="spacing" textLength="83" x="96.5" y="759.3076">- fyora_export/</text><text fill="#000000" font-family="sans-serif" font-size="13" lengthAdjust="spacing" textLength="101" x="96.5" y="775.6592">- fyora_summary/</text></g><!--link User to App--><g id="link_User_App"><path d="M407,122.5094 C407,159.0394 407,207.0494 407,239.0494 " fill="none" id="User-to-App" style="stroke:#555555;stroke-width:1.0;"/><polygon fill="#555555" points="407,245.0494,411,236.0494,407,240.0494,403,236.0494,407,245.0494" style="stroke:#555555;stroke-width:1.0;"/><text fill="#000000" font-family="sans-serif" font-size="13" lengthAdjust="spacing" textLength="90" x="408" y="166.6045">usa via terminal</text></g><!--link App to DotNet--><g id="link_App_DotNet"><path d="M329.6,300.1794 C304.9,309.1394 277.6,319.5594 253,330.1094 C216.19,345.8894 180.8625,363.3691 151.0225,378.7591 " fill="none" id="App-to-DotNet" style="stroke:#555555;stroke-width:1.0;stroke-dasharray:7.0,7.0;"/><polygon fill="#555555" points="145.69,381.5094,155.5223,380.939,150.1338,379.2175,151.8553,373.8289,145.69,381.5094" style="stroke:#555555;stroke-width:1.0;"/><text fill="#000000" font-family="sans-serif" font-size="13" lengthAdjust="spacing" textLength="68" x="254" y="344.6045">executa em</text></g><!--link App to EF--><g id="link_App_EF"><path d="M379.68,300.1194 C356.41,322.6994 327.4357,350.8107 304.0457,373.5107 " fill="none" id="App-to-EF" style="stroke:#555555;stroke-width:1.0;"/><polygon fill="#555555" points="299.74,377.6894,308.9843,374.2918,303.3281,374.2072,303.4127,368.5509,299.74,377.6894" style="stroke:#555555;stroke-width:1.0;"/><text fill="#000000" font-family="sans-serif" font-size="13" lengthAdjust="spacing" textLength="30" x="348" y="344.6045">ORM</text></g><!--link EF to DB--><g id="link_EF_DB"><path d="M206.94,428.8694 C180.91,439.2194 155.33,451.7194 148,463.1094 C143.67,469.8394 142.69,475.1294 148,481.1094 C157.95,492.3194 201.94,481.7494 215,489.1094 C242.39,504.5394 259.7605,530.6185 270.7505,551.1685 " fill="none" id="EF-to-DB" style="stroke:#555555;stroke-width:1.0;"/><polygon fill="#555555" points="273.58,556.4594,272.863,546.6367,271.222,552.0503,265.8084,550.4094,273.58,556.4594" style="stroke:#555555;stroke-width:1.0;"/><text fill="#000000" font-family="sans-serif" font-size="13" lengthAdjust="spacing" textLength="248" x="149" y="477.6045">SQL (INSERT/SELECT/UPDATE/DELETE)</text></g><!--link App to IMP--><g id="link_App_IMP"><path d="M485.19,285.4894 C546.04,298.5194 628.82,325.1094 682,378.1094 C732.85,428.7894 749.5057,511.2063 754.9457,550.4263 " fill="none" id="App-to-IMP" style="stroke:#555555;stroke-width:1.0;"/><polygon fill="#555555" points="755.77,556.3694,758.4956,546.9052,755.0831,551.4168,750.5714,548.0043,755.77,556.3694" style="stroke:#555555;stroke-width:1.0;"/><text fill="#000000" font-family="sans-serif" font-size="13" lengthAdjust="spacing" textLength="106" x="720" y="411.1045">l&#234; JSON de import</text></g><!--link App to EXP--><g id="link_App_EXP"><path d="M409.64,300.1894 C415.3,357.2794 427.9782,503.4459 433.6982,561.1559 " fill="none" id="App-to-EXP" style="stroke:#555555;stroke-width:1.0;"/><polygon fill="#555555" points="434.29,567.1267,437.3828,557.776,433.7968,562.1511,429.4218,558.5651,434.29,567.1267" style="stroke:#555555;stroke-width:1.0;"/><text fill="#000000" font-family="sans-serif" font-size="13" lengthAdjust="spacing" textLength="111" x="423" y="411.1045">gera JSON (export)</text></g><!--link App to SUM--><g id="link_App_SUM"><path d="M456.78,300.1894 C486.16,318.3594 521.65,345.1094 543,378.1094 C577.74,431.7994 586.4998,523.5596 588.8598,563.9196 " fill="none" id="App-to-SUM" style="stroke:#555555;stroke-width:1.0;"/><polygon fill="#555555" points="589.21,569.9094,592.6778,560.6912,588.9181,564.9179,584.6915,561.1582,589.21,569.9094" style="stroke:#555555;stroke-width:1.0;"/><text fill="#000000" font-family="sans-serif" font-size="13" lengthAdjust="spacing" textLength="105" x="568" y="411.1045">gera TXT (resumo)</text></g><!--link DB to GMN19--><g id="link_DB_GMN19"><path d="M293.39,556.3894 C308.6,528.6694 339.83,480.7294 382.5,461.1094 C472.15,419.8994 731.9,433.0694 826.5,461.1094 C883.2,477.9094 938.75,519.0294 972.44,547.4994 " fill="none" id="DB-GMN19" style="stroke:#555555;stroke-width:1.0;stroke-dasharray:7.0,7.0;"/></g><!--link Root to GMN22--><g id="link_Root_GMN22"><path d="M184,629.4433 C184,629.6494 184,629.8559 184,630.0627 C184,630.4763 184,630.8911 184,631.3071 C184,632.9708 184,634.6531 184,636.3507 C184,639.7458 184,643.2022 184,646.694 C184,653.6777 184,660.8036 184,667.8666 C184,681.9925 184,695.8669 184,707.8494 " fill="none" id="Root-GMN22" style="stroke:#555555;stroke-width:1.0;stroke-dasharray:7.0,7.0;"/></g><!--SRC=[RLDDRnen4BtxLupeeQ06Q5H5gZX48h2Hg60XxAwQGwNAsJNWnFPiRMyIMkN7L3rKohs_W3_MyMu-I9iJhESzlpTlnbvw9I2RJM4iIeLRBOo7BaIt8gzsltU_41JcN47xT8kMTrrffV4VEeovAsbARha6j-45taYpXXLNJknLB5QcoD4QOU7m_LuXHrsY8Qd4RqdUYjnpirRxtA6rU3D2XHRU71qT_Lj9DpA_Ci8vE6ICvvvWhNafB5cnBU0ECYSiOmOB0QtPxkUtIXeEqz3B5zF-B0rPTj07pVDvGhzJQQhRJisiGV230JJiNXoby16MbV5IYneoHXyBpmZor0cqweHWM6XfO8J6eH8ajR2u9jUztC4xo6GZCIpBbzpeb2Wsu9EpgVG2Y7Oj2s4RV7GQj5Qew0HQIow_Gu5GMhmK7cl44j7NdW6uzN95aK1h5HnzvS5HhxXed9_KcCUh6eIuBT7wHkbyyGh0LLfpkwqHIJPxLKRgS4dlqg6fSPDPkEcEtJ7s5YR6qsneeVw8a7eXIc6AtRt99NSiZ0gwtUCG2moWSXok9GTYa76kM3ZkzOuVKYU42DlfEGXTrmAL0Xp0V3bZz2TyZq_ecxA4zYHEecNQJw9fD4hxsM8yJAF-cBxIYDRuaKzkYQ1sz_0fcSTa49f-dWNE0s1DNJI8TXDQvmb0kJm2qlCKsbPGQjW9tSVeAH0iSuc6IqTRIHEsShtnWAjc90zZNqbw100fln2Akq6znUu0wYMYPP_Ysb4vYoTdMTIEmnFWMXn0fBbK7KQPGhYRDGeNw3tg816sWtWZJe5kq04z1VjoYGPKxi9_azmxRVhjxvqyR4N_MVSl]--></g></svg>